{
  "accessors": [
    {
      "bufferView": 2,
      "componentType": 5126,
      "count": 65532,
      "max": [
        103.6838150024414,
        271.017822265625,
        211.08914184570313
      ],
      "min": [
        -103.68379974365234,
        0.09625200182199478,
        -305.9661865234375
      ],
      "type": "VEC3"
    },
    {
      "bufferView": 2,
      "byteOffset": 786384,
      "componentType": 5126,
      "count": 65532,
      "max": [
        1.0,
        1.0,
        1.0
      ],
      "min": [
        -1.0,
        -1.0,
        -1.0
      ],
      "type": "VEC3"
    },
    {
      "bufferView": 3,
      "componentType": 5126,
      "count": 65532,
      "max": [
        1.0,
        1.0,
        1.0,
        1.0
      ],
      "min": [
        -1.0,
        -1.0,
        -1.0,
        -1.0
      ],
      "type": "VEC4"
    },
    {
      "bufferView": 1,
      "componentType": 5126,
      "count": 65532,
      "max": [
        0.99720698595047,
        0.9980729818344116
      ],
      "min": [
        0.0025820001028478146,
        0.002756000030785799
      ],
      "type": "VEC2"
    },
    {
      "bufferView": 0,
      "componentType": 5125,
      "count": 184908,
      "type": "SCALAR"
    },
    {
      "bufferView": 2,
      "byteOffset": 1572768,
      "componentType": 5126,
      "count": 17658,
      "max": [
        80.21452331542969,
        270.59576416015625,
        87.91802978515625
      ],
      "min": [
        -80.21452331542969,
        66.57649230957031,
        -319.23480224609375
      ],
      "type": "VEC3"
    },
    {
      "bufferView": 2,
      "byteOffset": 1784664,
      "componentType": 5126,
      "count": 17658,
      "max": [
        1.0,
        1.0,
        1.0
      ],
      "min": [
        -1.0,
        -1.0,
        -1.0
      ],
      "type": "VEC3"
    },
    {
      "bufferView": 3,
      "byteOffset": 1048512,
      "componentType": 5126,
      "count": 17658,
      "max": [
        1.0,
        1.0,
        1.0,
        1.0
      ],
      "min": [
        -1.0,
        -1.0,
        -1.0,
        -1.0
      ],
      "type": "VEC4"
    },
    {
      "bufferView": 1,
      "byteOffset": 524256,
      "componentType": 5126,
      "count": 17658,
      "max": [
        0.9962610006332397,
        0.997992992401123
      ],
      "min": [
        0.0030690000858157873,
        0.005594999995082617
      ],
      "type": "VEC2"
    },
    {
      "bufferView": 0,
      "byteOffset": 739632,
      "componentType": 5125,
      "count": 50142,
      "type": "SCALAR"
    },
    {
      "bufferView": 2,
      "byteOffset": 1996560,
      "componentType": 5126,
      "count": 305,
      "max": [
        78.78963470458984,
        190.9540557861328,
        196.05032348632813
      ],
      "min": [
        -71.50502014160156,
        103.91914367675781,
        -44.548980712890625
      ],
      "type": "VEC3"
    },
    {
      "bufferView": 2,
      "byteOffset": 2000220,
      "componentType": 5126,
      "count": 305,
      "max": [
        0.9994686841964722,
        0.998401939868927,
        0.9996098279953003
      ],
      "min": [
        -0.9994686245918274,
        -0.9998061656951904,
        -1.0
      ],
      "type": "VEC3"
    },
    {
      "bufferView": 3,
      "byteOffset": 1331040,
      "componentType": 5126,
      "count": 305,
      "max": [
        0.6105426549911499,
        0.9980016946792603,
        0.9997187852859497,
        1.0
      ],
      "min": [
        -0.800047755241394,
        -1.0,
        -0.9997185468673706,
        1.0
      ],
      "type": "VEC4"
    },
    {
      "bufferView": 1,
      "byteOffset": 665520,
      "componentType": 5126,
      "count": 305,
      "max": [
        0.5310660004615784,
        0.9963909983634949
      ],
      "min": [
        0.0033889999613165855,
        0.209073007106781
      ],
      "type": "VEC2"
    },
    {
      "bufferView": 0,
      "byteOffset": 940200,
      "componentType": 5125,
      "count": 1425,
      "type": "SCALAR"
    },
    {
      "bufferView": 2,
      "byteOffset": 2003880,
      "componentType": 5126,
      "count": 11,
      "max": [
        -63.21609115600586,
        190.81707763671875,
        52.37311553955078
      ],
      "min": [
        -78.78963470458984,
        138.3419647216797,
        -44.548980712890625
      ],
      "type": "VEC3"
    },
    {
      "bufferView": 2,
      "byteOffset": 2004012,
      "componentType": 5126,
      "count": 11,
      "max": [
        -0.9478864073753357,
        0.3184954524040222,
        0.015202627517282963
      ],
      "min": [
        -0.9630258083343506,
        0.2691774070262909,
        0.006847552955150604
      ],
      "type": "VEC3"
    },
    {
      "bufferView": 3,
      "byteOffset": 1335920,
      "componentType": 5126,
      "count": 11,
      "max": [
        0.318593829870224,
        0.9629091024398804,
        0.016291046515107155,
        -1.0
      ],
      "min": [
        0.2693338692188263,
        0.9477626085281372,
        0.01562649756669998,
        -1.0
      ],
      "type": "VEC4"
    },
    {
      "bufferView": 1,
      "byteOffset": 667960,
      "componentType": 5126,
      "count": 11,
      "max": [
        0.050958000123500824,
        0.6688950061798096
      ],
      "min": [
        0.004803000018000603,
        0.583952009677887
      ],
      "type": "VEC2"
    },
    {
      "bufferView": 0,
      "byteOffset": 945900,
      "componentType": 5125,
      "count": 27,
      "type": "SCALAR"
    },
    {
      "bufferView": 2,
      "byteOffset": 2004144,
      "componentType": 5126,
      "count": 116,
      "max": [
        79.16252136230469,
        190.35592651367188,
        -51.73429489135742
      ],
      "min": [
        -79.16252136230469,
        140.55149841308594,
        -246.14793395996094
      ],
      "type": "VEC3"
    },
    {
      "bufferView": 2,
      "byteOffset": 2005536,
      "componentType": 5126,
      "count": 116,
      "max": [
        0.9674186110496521,
        0.44363176822662354,
        0.007106570526957512
      ],
      "min": [
        -0.9674186110496521,
        0.2531786561012268,
        -0.944567084312439
      ],
      "type": "VEC3"
    },
    {
      "bufferView": 3,
      "byteOffset": 1336096,
      "componentType": 5126,
      "count": 116,
      "max": [
        0.4115923047065735,
        0.967167317867279,
        0.44375720620155334,
        1.0
      ],
      "min": [
        -0.4115923047065735,
        -0.9636524319648743,
        -0.018412016332149506,
        -1.0
      ],
      "type": "VEC4"
    },
    {
      "bufferView": 1,
      "byteOffset": 668048,
      "componentType": 5126,
      "count": 116,
      "max": [
        0.048163000494241714,
        0.870468020439148
      ],
      "min": [
        0.002727000042796135,
        0.5056859850883484
      ],
      "type": "VEC2"
    },
    {
      "bufferView": 0,
      "byteOffset": 946008,
      "componentType": 5125,
      "count": 462,
      "type": "SCALAR"
    }
  ],
  "asset": {
    "extras": {
      "author": "Danila Davydov (https://sketchfab.com/daniladavydov)",
      "license": "CC-BY-4.0 (http://creativecommons.org/licenses/by/4.0/)",
      "source": "https://sketchfab.com/3d-models/a-land-explorer-free-343551d39d87444997962ed73a924917",
      "title": "A Land Explorer (Free)"
    },
    "generator": "Sketchfab-12.65.0",
    "version": "2.0"
  },
  "bufferViews": [
    {
      "buffer": 0,
      "byteLength": 947856,
      "name": "floatBufferViews",
      "target": 34963
    },
    {
      "buffer": 0,
      "byteLength": 668976,
      "byteOffset": 947856,
      "byteStride": 8,
      "name": "floatBufferViews",
      "target": 34962
    },
    {
      "buffer": 0,
      "byteLength": 2006928,
      "byteOffset": 1616832,
      "byteStride": 12,
      "name": "floatBufferViews",
      "target": 34962
    },
    {
      "buffer": 0,
      "byteLength": 1337952,
      "byteOffset": 3623760,
      "byteStride": 16,
      "name": "floatBufferViews",
      "target": 34962
    }
  ],
  "buffers": [
    {
      "byteLength": 4961712,
      "uri": "scene.bin"
    }
  ],
  "images": [
    {
      "uri": "textures/material_baseColor.png"
    },
    {
      "uri": "textures/material_metallicRoughness.png"
    },
    {
      "uri": "textures/material_emissive.png"
    },
    {
      "uri": "textures/material_normal.png"
    },
    {
      "uri": "textures/Glass_1_baseColor.png"
    },
    {
      "uri": "textures/Glass_1_metallicRoughness.png"
    }
  ],
  "materials": [
    {
      "alphaMode": "BLEND",
      "doubleSided": true,
      "emissiveFactor": [
        1.0,
        1.0,
        1.0
      ],
      "emissiveTexture": {
        "index": 2
      },
      "name": "material",
      "normalTexture": {
        "index": 3
      },
      "pbrMetallicRoughness": {
        "baseColorTexture": {
          "index": 0
        },
        "metallicRoughnessTexture": {
          "index": 1
        }
      }
    },
    {
      "alphaMode": "BLEND",
      "doubleSided": true,
      "emissiveFactor": [
        1.0,
        1.0,
        1.0
      ],
      "emissiveTexture": {
        "index": 2
      },
      "name": "Glass_1",
      "normalTexture": {
        "index": 3
      },
      "pbrMetallicRoughness": {
        "baseColorTexture": {
          "index": 4
        },
        "metallicFactor": 0.0,
        "metallicRoughnessTexture": {
          "index": 5
        }
      }
    },
    {
      "alphaMode": "BLEND",
      "doubleSided": true,
      "name": "Glass_2",
      "normalTexture": {
        "index": 3
      },
      "pbrMetallicRoughness": {
        "baseColorTexture": {
          "index": 4
        },
        "metallicFactor": 0.0,
        "metallicRoughnessTexture": {
          "index": 5
        }
      }
    }
  ],
  "meshes": [
    {
      "name": "Car_Car_0",
      "primitives": [
        {
          "attributes": {
            "NORMAL": 1,
            "POSITION": 0,
            "TANGENT": 2,
            "TEXCOORD_0": 3
          },
          "indices": 4,
          "material": 0,
          "mode": 4
        }
      ]
    },
    {
      "name": "Car_Car_0",
      "primitives": [
        {
          "attributes": {
            "NORMAL": 6,
            "POSITION": 5,
            "TANGENT": 7,
            "TEXCOORD_0": 8
          },
          "indices": 9,
          "material": 0,
          "mode": 4
        }
      ]
    },
    {
      "name": "Glass 1_Glass 1_0",
      "primitives": [
        {
          "attributes": {
            "NORMAL": 11,
            "POSITION": 10,
            "TANGENT": 12,
            "TEXCOORD_0": 13
          },
          "indices": 14,
          "material": 1,
          "mode": 4
        }
      ]
    },
    {
      "name": "Glass 1_Car_0",
      "primitives": [
        {
          "attributes": {
            "NORMAL": 16,
            "POSITION": 15,
            "TANGENT": 17,
            "TEXCOORD_0": 18
          },
          "indices": 19,
          "material": 0,
          "mode": 4
        }
      ]
    },
    {
      "name": "Glass 2_Glass 2_0",
      "primitives": [
        {
          "attributes": {
            "NORMAL": 21,
            "POSITION": 20,
            "TANGENT": 22,
            "TEXCOORD_0": 23
          },
          "indices": 24,
          "material": 2,
          "mode": 4
        }
      ]
    }
  ],
  "nodes": [
    {
      "children": [
        1
      ],
      "matrix": [
        0.009999999776482582,
        0.0,
        0.0,
        0.0,
        0.0,
        2.2204459996194763e-18,
        -0.009999999776482582,
        0.0,
        0.0,
        0.009999999776482582,
        2.2204459996194763e-18,
        0.0,
        0.0,
        0.0,
        0.0,
        1.0
      ],
      "name": "Sketchfab_model"
    },
    {
      "children": [
        2
      ],
      "matrix": [
        1.0,
        0.0,
        0.0,
        0.0,
        0.0,
        0.0,
        1.0,
        0.0,
        0.0,
        -1.0,
        0.0,
        0.0,
        0.0,
        0.0,
        0.0,
        1.0
      ],
      "name": "4a704bae6c744d88b8047ccec1bf9ca6.fbx"
    },
    {
      "children": [
        3,
        6,
        9
      ],
      "name": "RootNode"
    },
    {
      "children": [
        4,
        5
      ],
      "matrix": [
        0.9116518497467041,
        0.0,
        0.0,
        0.0,
        0.0,
        0.911651849746692,
        1.485269567455886e-07,
        0.0,
        0.0,
        -1.485269567455886e-07,
        0.911651849746692,
        0.0,
        0.0,
        0.0,
        0.0,
        1.0
      ],
      "name": "Car"
    },
    {
      "mesh": 0,
      "name": "Car_Car_0"
    },
    {
      "mesh": 1,
      "name": "Car_Car_0"
    },
    {
      "children": [
        7,
        8
      ],
      "matrix": [
        0.9116518497467041,
        0.0,
        0.0,
        0.0,
        0.0,
        0.911651849746692,
        1.485269567455886e-07,
        0.0,
        0.0,
        -1.485269567455886e-07,
        0.911651849746692,
        0.0,
        0.0,
        0.0,
        0.0,
        1.0
      ],
      "name": "Glass 1"
    },
    {
      "mesh": 2,
      "name": "Glass 1_Glass 1_0"
    },
    {
      "mesh": 3,
      "name": "Glass 1_Car_0"
    },
    {
      "children": [
        10
      ],
      "matrix": [
        0.9116518497467041,
        0.0,
        0.0,
        0.0,
        0.0,
        0.911651849746692,
        1.485269567455886e-07,
        0.0,
        0.0,
        -1.485269567455886e-07,
        0.911651849746692,
        0.0,
        0.0,
        0.0,
        0.0,
        1.0
      ],
      "name": "Glass 2"
    },
    {
      "mesh": 4,
      "name": "Glass 2_Glass 2_0"
    }
  ],
  "samplers": [
    {
      "magFilter": 9729,
      "minFilter": 9987,
      "wrapS": 10497,
      "wrapT": 10497
    }
  ],
  "scene": 0,
  "scenes": [
    {
      "name": "Sketchfab_Scene",
      "nodes": [
        0
      ]
    }
  ],
  "textures": [
    {
      "sampler": 0,
      "source": 0
    },
    {
      "sampler": 0,
      "source": 1
    },
    {
      "sampler": 0,
      "source": 2
    },
    {
      "sampler": 0,
      "source": 3
    },
    {
      "sampler": 0,
      "source": 4
    },
    {
      "sampler": 0,
      "source": 5
    }
  ]
}
